<?xml version="1.0" standalone="no"?>
<!DOCTYPE svg PUBLIC "-//W3C//DTD SVG 20010904//EN"
 "http://www.w3.org/TR/2001/REC-SVG-20010904/DTD/svg10.dtd">
<svg version="1.0" xmlns="http://www.w3.org/2000/svg"
 width="100.000000pt" height="100.000000pt" viewBox="0 0 100.000000 100.000000"
 preserveAspectRatio="xMidYMid meet">
<metadata>
Created by potrace 1.16, written by Peter Selinger 2001-2019
</metadata>
<g transform="translate(0.000000,100.000000) scale(0.015601,-0.015601)"
fill="#000000" stroke="none">
<path d="M2150 6144 c-316 -14 -538 -46 -733 -105 -276 -85 -468 -200 -666
-399 -167 -168 -282 -355 -361 -585 -71 -209 -103 -402 -120 -745 -11 -209
-14 -1778 -4 -1804 3 -9 15 -16 25 -16 10 0 19 -6 19 -13 0 -26 56 -47 125
-47 60 0 70 -3 92 -26 21 -23 29 -25 66 -19 23 4 46 11 51 16 6 5 18 9 28 9
17 0 18 31 18 658 0 708 13 1351 31 1527 21 217 62 370 139 526 49 98 84 147
173 238 116 119 218 185 382 246 187 71 361 91 912 106 484 13 1815 6 2116
-11 354 -20 601 -84 777 -203 273 -184 425 -468 469 -877 24 -219 33 -788 28
-1665 -5 -873 -13 -1099 -42 -1280 -31 -192 -111 -404 -195 -516 -101 -135
-256 -265 -382 -319 -32 -14 -58 -31 -58 -37 0 -8 -15 -13 -37 -14 -44 -1
-123 -27 -85 -28 12 -1 22 -6 22 -11 0 -16 62 -50 93 -50 15 0 30 -7 33 -15 4
-8 14 -15 24 -15 11 0 21 -4 25 -9 9 -16 67 -41 93 -41 14 0 30 -7 36 -16 10
-13 31 -16 104 -15 115 1 133 11 289 164 273 266 415 571 478 1021 36 258 54
1336 36 2146 -14 616 -32 800 -101 1041 -105 365 -300 645 -600 860 -239 171
-535 267 -955 310 -101 11 -2139 21 -2345 13z"/>
<path d="M4739 5096 c-94 -36 -164 -102 -205 -191 -34 -74 -35 -125 -1 -197
50 -111 178 -203 278 -202 128 1 280 147 296 284 5 40 1 59 -25 113 -68 145
-230 236 -343 193z"/>
<path d="M3010 4675 c-495 -79 -937 -414 -1150 -872 -42 -90 -95 -249 -115
-348 -69 -335 19 -733 231 -1047 68 -101 102 -138 126 -138 12 0 18 -7 18 -23
0 -28 73 -107 100 -107 13 0 20 -7 20 -19 0 -20 18 -31 51 -31 13 0 19 -7 19
-24 0 -22 4 -24 79 -30 l79 -7 7 -40 7 -39 79 0 c64 0 79 -3 79 -15 0 -11 12
-15 45 -15 42 0 115 -26 115 -41 0 -4 36 -10 80 -14 44 -4 80 -11 80 -16 0 -4
24 -9 53 -11 44 -3 52 -6 55 -24 3 -24 40 -34 130 -34 28 0 52 -3 52 -7 0 -5
22 -6 49 -5 27 2 79 -1 115 -6 58 -9 76 -8 148 12 467 129 851 472 1028 920
17 43 45 133 63 200 30 114 32 131 32 301 0 138 -4 200 -18 263 -128 580 -543
1023 -1107 1182 -175 49 -379 62 -550 35z m524 -459 c350 -107 611 -381 698
-734 30 -120 32 -416 4 -536 -73 -315 -268 -561 -551 -697 -172 -82 -233 -94
-490 -93 -211 0 -224 1 -309 27 -310 96 -555 320 -666 609 -102 268 -87 655
36 901 140 280 388 473 695 542 47 10 121 14 279 11 202 -2 221 -4 304 -30z"/>
</g>
</svg>
